<mxfile host="app.diagrams.net" agent="Mozilla/5.0 (Windows NT 10.0; Win64; x64) AppleWebKit/537.36 (KHTML, like Gecko) Chrome/137.0.0.0 Safari/537.36" version="27.2.0" pages="2">
  <diagram name="요구사항분석" id="TQilp702DTpV7ib9klkR">
    <mxGraphModel dx="1425" dy="761" grid="1" gridSize="10" guides="1" tooltips="1" connect="1" arrows="1" fold="1" page="1" pageScale="1" pageWidth="827" pageHeight="1169" math="0" shadow="0">
      <root>
        <mxCell id="0" />
        <mxCell id="1" parent="0" />
        <mxCell id="PANN1YS4DidAt4UGhunW-50" value="" style="shape=card;whiteSpace=wrap;html=1;" vertex="1" parent="1">
          <mxGeometry x="220" y="20" width="810" height="870" as="geometry" />
        </mxCell>
        <mxCell id="PANN1YS4DidAt4UGhunW-51" value="" style="rounded=0;whiteSpace=wrap;html=1;" vertex="1" parent="1">
          <mxGeometry x="775" y="110" width="240" height="710" as="geometry" />
        </mxCell>
        <mxCell id="PANN1YS4DidAt4UGhunW-52" value="" style="rounded=0;whiteSpace=wrap;html=1;" vertex="1" parent="1">
          <mxGeometry x="530" y="110" width="240" height="710" as="geometry" />
        </mxCell>
        <mxCell id="PANN1YS4DidAt4UGhunW-54" value="" style="rounded=0;whiteSpace=wrap;html=1;" vertex="1" parent="1">
          <mxGeometry x="280" y="110" width="240" height="710" as="geometry" />
        </mxCell>
        <mxCell id="PANN1YS4DidAt4UGhunW-55" value="인증서비스" style="rounded=0;whiteSpace=wrap;html=1;fillColor=#e1d5e7;strokeColor=#9673a6;" vertex="1" parent="1">
          <mxGeometry x="280" y="110" width="240" height="30" as="geometry" />
        </mxCell>
        <mxCell id="PANN1YS4DidAt4UGhunW-57" value="인증서비스" style="rounded=0;whiteSpace=wrap;html=1;fillColor=#e1d5e7;strokeColor=#9673a6;" vertex="1" parent="1">
          <mxGeometry x="530" y="110" width="240" height="30" as="geometry" />
        </mxCell>
        <mxCell id="PANN1YS4DidAt4UGhunW-58" value="인증서비스" style="rounded=0;whiteSpace=wrap;html=1;fillColor=#e1d5e7;strokeColor=#9673a6;" vertex="1" parent="1">
          <mxGeometry x="775" y="110" width="240" height="30" as="geometry" />
        </mxCell>
        <mxCell id="PANN1YS4DidAt4UGhunW-59" value="개발물서비스" style="rounded=0;whiteSpace=wrap;html=1;fillColor=#e1d5e7;strokeColor=#9673a6;" vertex="1" parent="1">
          <mxGeometry x="280" y="280" width="240" height="30" as="geometry" />
        </mxCell>
        <mxCell id="PANN1YS4DidAt4UGhunW-61" value="도서 서비스" style="rounded=0;whiteSpace=wrap;html=1;fillColor=#e1d5e7;strokeColor=#9673a6;" vertex="1" parent="1">
          <mxGeometry x="530" y="280" width="240" height="30" as="geometry" />
        </mxCell>
        <mxCell id="PANN1YS4DidAt4UGhunW-62" value="도서 서비스" style="rounded=0;whiteSpace=wrap;html=1;fillColor=#e1d5e7;strokeColor=#9673a6;" vertex="1" parent="1">
          <mxGeometry x="775" y="280" width="240" height="30" as="geometry" />
        </mxCell>
        <mxCell id="PANN1YS4DidAt4UGhunW-63" value="결제서비스" style="rounded=0;whiteSpace=wrap;html=1;fillColor=#e1d5e7;strokeColor=#9673a6;" vertex="1" parent="1">
          <mxGeometry x="280" y="450" width="240" height="30" as="geometry" />
        </mxCell>
        <mxCell id="PANN1YS4DidAt4UGhunW-65" value="대여 서비스" style="rounded=0;whiteSpace=wrap;html=1;fillColor=#e1d5e7;strokeColor=#9673a6;" vertex="1" parent="1">
          <mxGeometry x="530" y="450" width="240" height="30" as="geometry" />
        </mxCell>
        <mxCell id="PANN1YS4DidAt4UGhunW-66" value="대여 서비스" style="rounded=0;whiteSpace=wrap;html=1;fillColor=#e1d5e7;strokeColor=#9673a6;" vertex="1" parent="1">
          <mxGeometry x="775" y="450" width="240" height="30" as="geometry" />
        </mxCell>
        <mxCell id="PANN1YS4DidAt4UGhunW-67" value="&lt;span style=&quot;font-size: 24px;&quot;&gt;개발물 구매&amp;amp;판매 프로그램&lt;/span&gt;" style="text;html=1;align=center;verticalAlign=middle;resizable=0;points=[];autosize=1;strokeColor=none;fillColor=none;" vertex="1" parent="1">
          <mxGeometry x="280" y="28" width="300" height="40" as="geometry" />
        </mxCell>
        <mxCell id="PANN1YS4DidAt4UGhunW-69" value="비회원" style="text;html=1;align=center;verticalAlign=middle;resizable=0;points=[];autosize=1;strokeColor=none;fillColor=none;" vertex="1" parent="1">
          <mxGeometry x="560" y="68" width="60" height="30" as="geometry" />
        </mxCell>
        <mxCell id="PANN1YS4DidAt4UGhunW-71" value="관리자" style="text;html=1;align=center;verticalAlign=middle;resizable=0;points=[];autosize=1;strokeColor=none;fillColor=none;" vertex="1" parent="1">
          <mxGeometry x="840" y="68" width="60" height="30" as="geometry" />
        </mxCell>
        <mxCell id="PANN1YS4DidAt4UGhunW-72" value="&lt;div&gt;&lt;span style=&quot;background-color: transparent; color: light-dark(rgb(0, 0, 0), rgb(255, 255, 255));&quot;&gt;회원은 개발물을 등록(Creat)할 수 있다.&lt;/span&gt;&lt;/div&gt;&lt;div&gt;&lt;span style=&quot;background-color: transparent; color: light-dark(rgb(0, 0, 0), rgb(255, 255, 255));&quot;&gt;회원은 개발물을 수정(Update)할 수 있다.&lt;/span&gt;&lt;/div&gt;&lt;div&gt;&lt;span style=&quot;background-color: transparent; color: light-dark(rgb(0, 0, 0), rgb(255, 255, 255));&quot;&gt;회원은 개발물을 열람(Read)할 수 있다&lt;/span&gt;&lt;span style=&quot;background-color: transparent; color: light-dark(rgb(0, 0, 0), rgb(255, 255, 255));&quot;&gt;.&lt;/span&gt;&lt;/div&gt;&lt;div&gt;&lt;span style=&quot;background-color: transparent; color: light-dark(rgb(0, 0, 0), rgb(255, 255, 255));&quot;&gt;회원은 개발물을 삭제(Delete)할 수 있다.&lt;/span&gt;&lt;/div&gt;&lt;div&gt;&lt;span style=&quot;background-color: transparent; color: light-dark(rgb(0, 0, 0), rgb(255, 255, 255));&quot;&gt;&lt;br&gt;&lt;/span&gt;&lt;/div&gt;&lt;div&gt;&lt;span style=&quot;background-color: transparent; color: light-dark(rgb(0, 0, 0), rgb(255, 255, 255));&quot;&gt;회원은 개발물을 판매(Process) 할 수 있다.&lt;/span&gt;&lt;/div&gt;&lt;div&gt;회원은 개발물을 구매(Process) 할 수 있다.&lt;/div&gt;&lt;div style=&quot;text-align: center;&quot;&gt;&lt;br&gt;&lt;/div&gt;" style="text;html=1;align=left;verticalAlign=middle;resizable=0;points=[];autosize=1;strokeColor=none;fillColor=none;fontSize=10;" vertex="1" parent="1">
          <mxGeometry x="300" y="320" width="200" height="110" as="geometry" />
        </mxCell>
        <mxCell id="PANN1YS4DidAt4UGhunW-73" value="&lt;div&gt;&lt;span style=&quot;background-color: transparent; color: light-dark(rgb(0, 0, 0), rgb(255, 255, 255));&quot;&gt;회원은 나의정보 조회(Read) 할 수 있다&lt;/span&gt;&lt;/div&gt;&lt;div&gt;회원은 나의정보 수정(Update) 할 수 있다&lt;/div&gt;&lt;div&gt;회원은 회원탈퇴(Delete) 할 수 있다&lt;/div&gt;&lt;div&gt;&lt;br&gt;&lt;/div&gt;&lt;div&gt;회원은 로그인(Process) 할 수 있다&lt;/div&gt;&lt;div&gt;회원은 로그아웃&lt;span style=&quot;background-color: transparent; color: light-dark(rgb(0, 0, 0), rgb(255, 255, 255));&quot;&gt;(Process)&lt;/span&gt;&lt;span style=&quot;background-color: transparent; color: light-dark(rgb(0, 0, 0), rgb(255, 255, 255));&quot;&gt;&amp;nbsp;할 수 있다&lt;/span&gt;&lt;/div&gt;&lt;div&gt;&lt;br&gt;&lt;/div&gt;" style="text;html=1;align=left;verticalAlign=middle;resizable=0;points=[];autosize=1;strokeColor=none;fillColor=none;fontSize=10;" vertex="1" parent="1">
          <mxGeometry x="300" y="155" width="200" height="100" as="geometry" />
        </mxCell>
        <mxCell id="PANN1YS4DidAt4UGhunW-74" value="&lt;div&gt;회원은 결제(Creat)할 수 있다.&lt;/div&gt;&lt;div&gt;회원은 결제 한 정보를 확인(Read)할 수 있다.&lt;/div&gt;&lt;div&gt;회원은 결제 한 정보를 수정(Update)할 수 있다.&lt;/div&gt;" style="text;html=1;align=left;verticalAlign=middle;resizable=0;points=[];autosize=1;strokeColor=none;fillColor=none;fontSize=10;" vertex="1" parent="1">
          <mxGeometry x="300" y="530" width="220" height="50" as="geometry" />
        </mxCell>
        <mxCell id="PANN1YS4DidAt4UGhunW-75" value="&lt;br&gt;&lt;div&gt;비회원은 회원가입(Create)을 할 수 있다&lt;/div&gt;&lt;div&gt;&lt;br&gt;&lt;/div&gt;" style="text;html=1;align=left;verticalAlign=middle;resizable=0;points=[];autosize=1;strokeColor=none;fillColor=none;fontSize=10;" vertex="1" parent="1">
          <mxGeometry x="535" y="155" width="190" height="50" as="geometry" />
        </mxCell>
        <mxCell id="PANN1YS4DidAt4UGhunW-78" value="비회원은 개발물을 열람(Read)할 수 있다.&lt;br&gt;&lt;div&gt;&lt;br&gt;&lt;/div&gt;" style="text;html=1;align=left;verticalAlign=middle;resizable=0;points=[];autosize=1;strokeColor=none;fillColor=none;fontSize=10;" vertex="1" parent="1">
          <mxGeometry x="535" y="340" width="200" height="40" as="geometry" />
        </mxCell>
        <mxCell id="PANN1YS4DidAt4UGhunW-80" value="회원" style="rounded=0;whiteSpace=wrap;html=1;fillColor=#dae8fc;strokeColor=#6c8ebf;" vertex="1" parent="1">
          <mxGeometry x="280" y="68" width="240" height="30" as="geometry" />
        </mxCell>
        <mxCell id="PANN1YS4DidAt4UGhunW-82" value="관리자" style="rounded=0;whiteSpace=wrap;html=1;fillColor=#dae8fc;strokeColor=#6c8ebf;" vertex="1" parent="1">
          <mxGeometry x="775" y="68" width="240" height="30" as="geometry" />
        </mxCell>
        <mxCell id="PANN1YS4DidAt4UGhunW-83" value="비회원" style="rounded=0;whiteSpace=wrap;html=1;fillColor=#dae8fc;strokeColor=#6c8ebf;" vertex="1" parent="1">
          <mxGeometry x="530" y="68" width="240" height="30" as="geometry" />
        </mxCell>
        <mxCell id="PANN1YS4DidAt4UGhunW-85" value="대여 서비스" style="rounded=0;whiteSpace=wrap;html=1;fillColor=#e1d5e7;strokeColor=#9673a6;" vertex="1" parent="1">
          <mxGeometry x="530" y="640" width="240" height="30" as="geometry" />
        </mxCell>
        <mxCell id="PANN1YS4DidAt4UGhunW-86" value="대여 서비스" style="rounded=0;whiteSpace=wrap;html=1;fillColor=#e1d5e7;strokeColor=#9673a6;" vertex="1" parent="1">
          <mxGeometry x="775" y="640" width="240" height="30" as="geometry" />
        </mxCell>
        <mxCell id="PANN1YS4DidAt4UGhunW-88" value="" style="rounded=0;whiteSpace=wrap;html=1;fillColor=#e1d5e7;strokeColor=#9673a6;" vertex="1" parent="1">
          <mxGeometry x="280" y="640" width="240" height="30" as="geometry" />
        </mxCell>
        <mxCell id="PANN1YS4DidAt4UGhunW-90" value="개발물서비스" style="rounded=0;whiteSpace=wrap;html=1;fillColor=#e1d5e7;strokeColor=#9673a6;" vertex="1" parent="1">
          <mxGeometry x="530" y="280" width="240" height="30" as="geometry" />
        </mxCell>
        <mxCell id="PANN1YS4DidAt4UGhunW-91" value="개발물 서비스" style="rounded=0;whiteSpace=wrap;html=1;fillColor=#e1d5e7;strokeColor=#9673a6;" vertex="1" parent="1">
          <mxGeometry x="775" y="280" width="240" height="30" as="geometry" />
        </mxCell>
        <mxCell id="PANN1YS4DidAt4UGhunW-92" value="결제서비스" style="rounded=0;whiteSpace=wrap;html=1;fillColor=#e1d5e7;strokeColor=#9673a6;" vertex="1" parent="1">
          <mxGeometry x="530" y="450" width="240" height="30" as="geometry" />
        </mxCell>
        <mxCell id="PANN1YS4DidAt4UGhunW-93" value="결제서비스" style="rounded=0;whiteSpace=wrap;html=1;fillColor=#e1d5e7;strokeColor=#9673a6;" vertex="1" parent="1">
          <mxGeometry x="775" y="450" width="240" height="30" as="geometry" />
        </mxCell>
        <mxCell id="PANN1YS4DidAt4UGhunW-94" value="" style="rounded=0;whiteSpace=wrap;html=1;fillColor=#e1d5e7;strokeColor=#9673a6;" vertex="1" parent="1">
          <mxGeometry x="530" y="640" width="240" height="30" as="geometry" />
        </mxCell>
        <mxCell id="PANN1YS4DidAt4UGhunW-95" value="" style="rounded=0;whiteSpace=wrap;html=1;fillColor=#e1d5e7;strokeColor=#9673a6;" vertex="1" parent="1">
          <mxGeometry x="775" y="640" width="240" height="30" as="geometry" />
        </mxCell>
        <mxCell id="PANN1YS4DidAt4UGhunW-96" value="&lt;div&gt;&lt;span style=&quot;background-color: transparent; color: light-dark(rgb(0, 0, 0), rgb(255, 255, 255));&quot;&gt;관리자는&amp;nbsp;나의정보 조회(Read) 할 수 있다&lt;/span&gt;&lt;/div&gt;&lt;div&gt;관리자는 나의정보 수정(Update) 할 수 있다&lt;/div&gt;&lt;div&gt;관리자는 회원탈퇴(Delete) 할 수 있다&lt;/div&gt;&lt;div&gt;&lt;br&gt;&lt;/div&gt;&lt;div&gt;회원은 로그인(Process) 할 수 있다&lt;/div&gt;&lt;div&gt;회원은 로그아웃&lt;span style=&quot;background-color: transparent; color: light-dark(rgb(0, 0, 0), rgb(255, 255, 255));&quot;&gt;(Process)&lt;/span&gt;&lt;span style=&quot;background-color: transparent; color: light-dark(rgb(0, 0, 0), rgb(255, 255, 255));&quot;&gt;&amp;nbsp;할 수 있다&lt;/span&gt;&lt;/div&gt;&lt;div&gt;&lt;br&gt;&lt;/div&gt;" style="text;html=1;align=left;verticalAlign=middle;resizable=0;points=[];autosize=1;strokeColor=none;fillColor=none;fontSize=10;" vertex="1" parent="1">
          <mxGeometry x="795" y="155" width="210" height="100" as="geometry" />
        </mxCell>
        <mxCell id="PANN1YS4DidAt4UGhunW-97" value="&lt;div&gt;&lt;span style=&quot;background-color: transparent; color: light-dark(rgb(0, 0, 0), rgb(255, 255, 255));&quot;&gt;관리자는 개발물을 등록(Creat)할 수 있다.&lt;/span&gt;&lt;/div&gt;&lt;div&gt;&lt;span style=&quot;background-color: transparent; color: light-dark(rgb(0, 0, 0), rgb(255, 255, 255));&quot;&gt;관리자는 개발물을 수정(Update)할 수 있다.&lt;/span&gt;&lt;/div&gt;&lt;div&gt;&lt;span style=&quot;background-color: transparent; color: light-dark(rgb(0, 0, 0), rgb(255, 255, 255));&quot;&gt;관리자는 개발물을 열람(Read)할 수 있다&lt;/span&gt;&lt;span style=&quot;background-color: transparent; color: light-dark(rgb(0, 0, 0), rgb(255, 255, 255));&quot;&gt;.&lt;/span&gt;&lt;/div&gt;&lt;div&gt;&lt;span style=&quot;background-color: transparent; color: light-dark(rgb(0, 0, 0), rgb(255, 255, 255));&quot;&gt;관리자는 개발물을 삭제(Delete)할 수 있다.&lt;/span&gt;&lt;/div&gt;&lt;div&gt;&lt;span style=&quot;background-color: transparent; color: light-dark(rgb(0, 0, 0), rgb(255, 255, 255));&quot;&gt;&lt;br&gt;&lt;/span&gt;&lt;/div&gt;&lt;div&gt;관리자는 개발물을 판매(Process)할 수 있다.&lt;/div&gt;&lt;div&gt;관리자는 개발물을 구매(Process)할 수 있다.&lt;/div&gt;&lt;div style=&quot;text-align: center;&quot;&gt;&lt;br&gt;&lt;/div&gt;" style="text;html=1;align=left;verticalAlign=middle;resizable=0;points=[];autosize=1;strokeColor=none;fillColor=none;fontSize=10;" vertex="1" parent="1">
          <mxGeometry x="795" y="330" width="210" height="110" as="geometry" />
        </mxCell>
        <mxCell id="PANN1YS4DidAt4UGhunW-98" value="&lt;div&gt;관리자는 결제(Creat)할 수 있다.&lt;/div&gt;&lt;div&gt;관리자는 결제 한 정보를 확인(Read)할 수 있다.&lt;/div&gt;&lt;div&gt;관리자는 결제 한 정보를 수정(Upadate)할 수 있다.&lt;/div&gt;&lt;div&gt;관리자는 결제 한 정보를 삭제(Delete)할 수 있다.&amp;nbsp;&lt;/div&gt;" style="text;html=1;align=left;verticalAlign=middle;resizable=0;points=[];autosize=1;strokeColor=none;fillColor=none;fontSize=10;" vertex="1" parent="1">
          <mxGeometry x="795" y="515" width="230" height="60" as="geometry" />
        </mxCell>
      </root>
    </mxGraphModel>
  </diagram>
  <diagram name="USECASE" id="OCwypAgmpe0Pp2iL3lNc">
    <mxGraphModel dx="1425" dy="761" grid="1" gridSize="10" guides="1" tooltips="1" connect="1" arrows="1" fold="1" page="1" pageScale="1" pageWidth="827" pageHeight="1169" math="0" shadow="0">
      <root>
        <mxCell id="0" />
        <mxCell id="1" parent="0" />
        <mxCell id="_r3QkGQczHyN3289975N-2" value="개발물 구매&amp;amp;판매 프로그램" style="shape=umlFrame;whiteSpace=wrap;html=1;pointerEvents=0;width=140;height=30;" parent="1" vertex="1">
          <mxGeometry x="170" y="90" width="540" height="790" as="geometry" />
        </mxCell>
        <mxCell id="_r3QkGQczHyN3289975N-3" value="회원" style="shape=umlActor;verticalLabelPosition=bottom;verticalAlign=top;html=1;" parent="1" vertex="1">
          <mxGeometry x="720" y="450" width="30" height="60" as="geometry" />
        </mxCell>
        <mxCell id="_r3QkGQczHyN3289975N-4" value="비회원" style="shape=umlActor;verticalLabelPosition=bottom;verticalAlign=top;html=1;" parent="1" vertex="1">
          <mxGeometry x="60" y="470" width="30" height="60" as="geometry" />
        </mxCell>
        <mxCell id="_r3QkGQczHyN3289975N-8" value="개발물 조회" style="ellipse;whiteSpace=wrap;html=1;" parent="1" vertex="1">
          <mxGeometry x="220" y="180" width="80" height="40" as="geometry" />
        </mxCell>
        <mxCell id="_r3QkGQczHyN3289975N-11" value="개발물 수정" style="ellipse;whiteSpace=wrap;html=1;" parent="1" vertex="1">
          <mxGeometry x="510" y="260" width="80" height="40" as="geometry" />
        </mxCell>
        <mxCell id="_r3QkGQczHyN3289975N-12" value="use" style="html=1;verticalAlign=bottom;endArrow=block;curved=0;rounded=0;entryX=1;entryY=1;entryDx=0;entryDy=0;" parent="1" source="_r3QkGQczHyN3289975N-9" target="_r3QkGQczHyN3289975N-8" edge="1">
          <mxGeometry width="80" relative="1" as="geometry">
            <mxPoint x="360" y="400" as="sourcePoint" />
            <mxPoint x="440" y="400" as="targetPoint" />
          </mxGeometry>
        </mxCell>
        <mxCell id="_r3QkGQczHyN3289975N-13" value="use" style="html=1;verticalAlign=bottom;endArrow=block;curved=0;rounded=0;entryX=0.006;entryY=0.679;entryDx=0;entryDy=0;entryPerimeter=0;" parent="1" source="_r3QkGQczHyN3289975N-4" target="_r3QkGQczHyN3289975N-8" edge="1">
          <mxGeometry width="80" relative="1" as="geometry">
            <mxPoint x="360" y="400" as="sourcePoint" />
            <mxPoint x="440" y="400" as="targetPoint" />
          </mxGeometry>
        </mxCell>
        <mxCell id="_r3QkGQczHyN3289975N-14" value="use" style="html=1;verticalAlign=bottom;endArrow=block;curved=0;rounded=0;entryX=1;entryY=0.5;entryDx=0;entryDy=0;exitX=0;exitY=0.3333333333333333;exitDx=0;exitDy=0;exitPerimeter=0;" parent="1" source="p2ouRuBy7spwp9d4Mi96-4" target="_r3QkGQczHyN3289975N-8" edge="1">
          <mxGeometry width="80" relative="1" as="geometry">
            <mxPoint x="740" y="210.0000000000001" as="sourcePoint" />
            <mxPoint x="440" y="400" as="targetPoint" />
          </mxGeometry>
        </mxCell>
        <mxCell id="_r3QkGQczHyN3289975N-15" value="use" style="html=1;verticalAlign=bottom;endArrow=block;curved=0;rounded=0;entryX=1;entryY=0.5;entryDx=0;entryDy=0;exitX=0;exitY=0.3333333333333333;exitDx=0;exitDy=0;exitPerimeter=0;" parent="1" source="p2ouRuBy7spwp9d4Mi96-4" target="_r3QkGQczHyN3289975N-9" edge="1">
          <mxGeometry width="80" relative="1" as="geometry">
            <mxPoint x="740" y="214.80000000000007" as="sourcePoint" />
            <mxPoint x="440" y="400" as="targetPoint" />
          </mxGeometry>
        </mxCell>
        <mxCell id="_r3QkGQczHyN3289975N-16" value="로그인" style="ellipse;whiteSpace=wrap;html=1;" parent="1" vertex="1">
          <mxGeometry x="374" y="350" width="80" height="40" as="geometry" />
        </mxCell>
        <mxCell id="_r3QkGQczHyN3289975N-17" value="" style="endArrow=open;dashed=1;endFill=0;endSize=6;html=1;rounded=0;exitX=0.044;exitY=0.662;exitDx=0;exitDy=0;entryX=0.719;entryY=-0.016;entryDx=0;entryDy=0;exitPerimeter=0;entryPerimeter=0;" parent="1" source="_r3QkGQczHyN3289975N-9" target="_r3QkGQczHyN3289975N-16" edge="1">
          <mxGeometry width="160" relative="1" as="geometry">
            <mxPoint x="320" y="400" as="sourcePoint" />
            <mxPoint x="480" y="400" as="targetPoint" />
          </mxGeometry>
        </mxCell>
        <mxCell id="_r3QkGQczHyN3289975N-19" value="&amp;lt;&amp;lt; include &amp;gt;&amp;gt;" style="edgeLabel;html=1;align=center;verticalAlign=middle;resizable=0;points=[];fontSize=8;" parent="_r3QkGQczHyN3289975N-17" vertex="1" connectable="0">
          <mxGeometry x="-0.0116" y="-1" relative="1" as="geometry">
            <mxPoint as="offset" />
          </mxGeometry>
        </mxCell>
        <mxCell id="_r3QkGQczHyN3289975N-22" value="" style="endArrow=open;dashed=1;endFill=0;endSize=6;html=1;rounded=0;exitX=0;exitY=1;exitDx=0;exitDy=0;" parent="1" source="_r3QkGQczHyN3289975N-11" target="_r3QkGQczHyN3289975N-16" edge="1">
          <mxGeometry width="160" relative="1" as="geometry">
            <mxPoint x="570" y="320" as="sourcePoint" />
            <mxPoint x="480" y="320" as="targetPoint" />
          </mxGeometry>
        </mxCell>
        <mxCell id="_r3QkGQczHyN3289975N-23" value="&amp;lt;&amp;lt; include &amp;gt;&amp;gt;" style="edgeLabel;html=1;align=center;verticalAlign=middle;resizable=0;points=[];fontSize=8;" parent="_r3QkGQczHyN3289975N-22" vertex="1" connectable="0">
          <mxGeometry x="-0.0116" y="-1" relative="1" as="geometry">
            <mxPoint as="offset" />
          </mxGeometry>
        </mxCell>
        <mxCell id="_r3QkGQczHyN3289975N-24" value="전체" style="ellipse;whiteSpace=wrap;html=1;" parent="1" vertex="1">
          <mxGeometry x="200" y="260" width="40" height="40" as="geometry" />
        </mxCell>
        <mxCell id="_r3QkGQczHyN3289975N-25" value="키워드" style="ellipse;whiteSpace=wrap;html=1;" parent="1" vertex="1">
          <mxGeometry x="280" y="260" width="40" height="40" as="geometry" />
        </mxCell>
        <mxCell id="_r3QkGQczHyN3289975N-26" value="" style="endArrow=open;dashed=1;endFill=0;endSize=6;html=1;rounded=0;exitX=0.33;exitY=0.136;exitDx=0;exitDy=0;entryX=0.5;entryY=1;entryDx=0;entryDy=0;exitPerimeter=0;" parent="1" source="_r3QkGQczHyN3289975N-24" target="_r3QkGQczHyN3289975N-8" edge="1">
          <mxGeometry width="160" relative="1" as="geometry">
            <mxPoint x="350" y="300" as="sourcePoint" />
            <mxPoint x="250" y="353" as="targetPoint" />
          </mxGeometry>
        </mxCell>
        <mxCell id="_r3QkGQczHyN3289975N-27" value="&lt;font style=&quot;font-size: 8px;&quot;&gt;&amp;lt;&amp;lt; extend&amp;gt;&amp;gt;&lt;/font&gt;" style="edgeLabel;html=1;align=center;verticalAlign=middle;resizable=0;points=[];" parent="_r3QkGQczHyN3289975N-26" vertex="1" connectable="0">
          <mxGeometry x="-0.0116" y="-1" relative="1" as="geometry">
            <mxPoint x="-5" y="-2" as="offset" />
          </mxGeometry>
        </mxCell>
        <mxCell id="_r3QkGQczHyN3289975N-28" value="" style="endArrow=open;dashed=1;endFill=0;endSize=6;html=1;rounded=0;exitX=0.5;exitY=0;exitDx=0;exitDy=0;entryX=0.5;entryY=1;entryDx=0;entryDy=0;" parent="1" source="_r3QkGQczHyN3289975N-25" target="_r3QkGQczHyN3289975N-8" edge="1">
          <mxGeometry width="160" relative="1" as="geometry">
            <mxPoint x="250" y="285" as="sourcePoint" />
            <mxPoint x="287" y="250" as="targetPoint" />
          </mxGeometry>
        </mxCell>
        <mxCell id="_r3QkGQczHyN3289975N-29" value="&lt;font style=&quot;font-size: 8px;&quot;&gt;&amp;lt;&amp;lt; extend&amp;gt;&amp;gt;&lt;/font&gt;" style="edgeLabel;html=1;align=center;verticalAlign=middle;resizable=0;points=[];" parent="_r3QkGQczHyN3289975N-28" vertex="1" connectable="0">
          <mxGeometry x="-0.0116" y="-1" relative="1" as="geometry">
            <mxPoint x="9" as="offset" />
          </mxGeometry>
        </mxCell>
        <mxCell id="p2ouRuBy7spwp9d4Mi96-1" value="회원가입" style="ellipse;whiteSpace=wrap;html=1;" parent="1" vertex="1">
          <mxGeometry x="220" y="480" width="80" height="40" as="geometry" />
        </mxCell>
        <mxCell id="p2ouRuBy7spwp9d4Mi96-3" value="use" style="html=1;verticalAlign=bottom;endArrow=block;curved=0;rounded=0;entryX=0;entryY=0.5;entryDx=0;entryDy=0;" parent="1" source="_r3QkGQczHyN3289975N-4" target="p2ouRuBy7spwp9d4Mi96-1" edge="1">
          <mxGeometry width="80" relative="1" as="geometry">
            <mxPoint x="90" y="714" as="sourcePoint" />
            <mxPoint x="220" y="460" as="targetPoint" />
          </mxGeometry>
        </mxCell>
        <mxCell id="p2ouRuBy7spwp9d4Mi96-4" value="관리자" style="shape=umlActor;verticalLabelPosition=bottom;verticalAlign=top;html=1;" parent="1" vertex="1">
          <mxGeometry x="730" y="180" width="30" height="60" as="geometry" />
        </mxCell>
        <mxCell id="8O7HqSqT24vESQiMK9eg-1" value="회원관리" style="ellipse;whiteSpace=wrap;html=1;" parent="1" vertex="1">
          <mxGeometry x="510" y="360" width="80" height="40" as="geometry" />
        </mxCell>
        <mxCell id="8O7HqSqT24vESQiMK9eg-6" value="" style="edgeStyle=orthogonalEdgeStyle;rounded=0;orthogonalLoop=1;jettySize=auto;html=1;endArrow=block;endFill=0;entryX=0.5;entryY=1;entryDx=0;entryDy=0;" parent="1" source="8O7HqSqT24vESQiMK9eg-2" target="8O7HqSqT24vESQiMK9eg-1" edge="1">
          <mxGeometry relative="1" as="geometry">
            <Array as="points">
              <mxPoint x="460" y="430" />
              <mxPoint x="550" y="430" />
            </Array>
          </mxGeometry>
        </mxCell>
        <mxCell id="8O7HqSqT24vESQiMK9eg-2" value="조회" style="ellipse;whiteSpace=wrap;html=1;" parent="1" vertex="1">
          <mxGeometry x="440" y="450" width="40" height="40" as="geometry" />
        </mxCell>
        <mxCell id="8O7HqSqT24vESQiMK9eg-4" value="수정" style="ellipse;whiteSpace=wrap;html=1;" parent="1" vertex="1">
          <mxGeometry x="520" y="450" width="40" height="40" as="geometry" />
        </mxCell>
        <mxCell id="8O7HqSqT24vESQiMK9eg-5" value="삭제" style="ellipse;whiteSpace=wrap;html=1;" parent="1" vertex="1">
          <mxGeometry x="560" y="450" width="40" height="40" as="geometry" />
        </mxCell>
        <mxCell id="8O7HqSqT24vESQiMK9eg-11" value="use" style="html=1;verticalAlign=bottom;endArrow=block;curved=0;rounded=0;entryX=0.975;entryY=0.662;entryDx=0;entryDy=0;entryPerimeter=0;" parent="1" target="8O7HqSqT24vESQiMK9eg-1" edge="1">
          <mxGeometry width="80" relative="1" as="geometry">
            <mxPoint x="730" y="200" as="sourcePoint" />
            <mxPoint x="730" y="265" as="targetPoint" />
          </mxGeometry>
        </mxCell>
        <mxCell id="8O7HqSqT24vESQiMK9eg-14" value="나의&lt;div&gt;정보&lt;/div&gt;" style="ellipse;whiteSpace=wrap;html=1;" parent="1" vertex="1">
          <mxGeometry x="360" y="520" width="40" height="40" as="geometry" />
        </mxCell>
        <mxCell id="8O7HqSqT24vESQiMK9eg-21" value="" style="endArrow=open;dashed=1;endFill=0;endSize=6;html=1;rounded=0;exitX=0.5;exitY=0;exitDx=0;exitDy=0;entryX=0;entryY=1;entryDx=0;entryDy=0;" parent="1" source="8O7HqSqT24vESQiMK9eg-14" target="8O7HqSqT24vESQiMK9eg-2" edge="1">
          <mxGeometry width="160" relative="1" as="geometry">
            <mxPoint x="320" y="290" as="sourcePoint" />
            <mxPoint x="280" y="260" as="targetPoint" />
            <Array as="points" />
          </mxGeometry>
        </mxCell>
        <mxCell id="8O7HqSqT24vESQiMK9eg-22" value="&lt;font style=&quot;font-size: 8px;&quot;&gt;&amp;lt;&amp;lt; extend&amp;gt;&amp;gt;&lt;/font&gt;" style="edgeLabel;html=1;align=center;verticalAlign=middle;resizable=0;points=[];" parent="8O7HqSqT24vESQiMK9eg-21" vertex="1" connectable="0">
          <mxGeometry x="-0.0116" y="-1" relative="1" as="geometry">
            <mxPoint y="-11" as="offset" />
          </mxGeometry>
        </mxCell>
        <mxCell id="8O7HqSqT24vESQiMK9eg-28" value="" style="endArrow=open;dashed=1;endFill=0;endSize=6;html=1;rounded=0;exitX=0.5;exitY=0;exitDx=0;exitDy=0;" parent="1" source="8O7HqSqT24vESQiMK9eg-13" edge="1" target="8O7HqSqT24vESQiMK9eg-2">
          <mxGeometry width="160" relative="1" as="geometry">
            <mxPoint x="450" y="550" as="sourcePoint" />
            <mxPoint x="450" y="560" as="targetPoint" />
          </mxGeometry>
        </mxCell>
        <mxCell id="8O7HqSqT24vESQiMK9eg-29" value="&lt;font style=&quot;font-size: 8px;&quot;&gt;&amp;lt;&amp;lt; extend&amp;gt;&amp;gt;&lt;/font&gt;" style="edgeLabel;html=1;align=center;verticalAlign=middle;resizable=0;points=[];" parent="8O7HqSqT24vESQiMK9eg-28" vertex="1" connectable="0">
          <mxGeometry x="-0.0116" y="-1" relative="1" as="geometry">
            <mxPoint x="-6" y="3" as="offset" />
          </mxGeometry>
        </mxCell>
        <mxCell id="8O7HqSqT24vESQiMK9eg-32" value="전체" style="ellipse;whiteSpace=wrap;html=1;" parent="1" vertex="1">
          <mxGeometry x="440" y="520" width="40" height="40" as="geometry" />
        </mxCell>
        <mxCell id="jRs0T8GrUss93oa-0Pz8-1" value="" style="html=1;verticalAlign=bottom;endArrow=block;curved=0;rounded=0;entryX=1;entryY=1;entryDx=0;entryDy=0;exitX=0;exitY=0.3333333333333333;exitDx=0;exitDy=0;exitPerimeter=0;" edge="1" parent="1" source="_r3QkGQczHyN3289975N-3" target="_r3QkGQczHyN3289975N-9">
          <mxGeometry width="80" relative="1" as="geometry">
            <mxPoint x="720" y="472" as="sourcePoint" />
            <mxPoint x="224" y="215" as="targetPoint" />
          </mxGeometry>
        </mxCell>
        <mxCell id="_r3QkGQczHyN3289975N-9" value="개발물 등록" style="ellipse;whiteSpace=wrap;html=1;" parent="1" vertex="1">
          <mxGeometry x="510" y="210" width="80" height="40" as="geometry" />
        </mxCell>
        <mxCell id="8O7HqSqT24vESQiMK9eg-3" value="등록" style="ellipse;whiteSpace=wrap;html=1;" parent="1" vertex="1">
          <mxGeometry x="480" y="450" width="40" height="40" as="geometry" />
        </mxCell>
        <mxCell id="jRs0T8GrUss93oa-0Pz8-3" value="" style="endArrow=open;dashed=1;endFill=0;endSize=6;html=1;rounded=0;exitX=0;exitY=0.5;exitDx=0;exitDy=0;entryX=1.004;entryY=0.38;entryDx=0;entryDy=0;entryPerimeter=0;" edge="1" parent="1" source="8O7HqSqT24vESQiMK9eg-1" target="_r3QkGQczHyN3289975N-16">
          <mxGeometry width="160" relative="1" as="geometry">
            <mxPoint x="650" y="400" as="sourcePoint" />
            <mxPoint x="570" y="442" as="targetPoint" />
          </mxGeometry>
        </mxCell>
        <mxCell id="jRs0T8GrUss93oa-0Pz8-4" value="&amp;lt;&amp;lt; include &amp;gt;&amp;gt;" style="edgeLabel;html=1;align=center;verticalAlign=middle;resizable=0;points=[];fontSize=8;" vertex="1" connectable="0" parent="jRs0T8GrUss93oa-0Pz8-3">
          <mxGeometry x="-0.0116" y="-1" relative="1" as="geometry">
            <mxPoint as="offset" />
          </mxGeometry>
        </mxCell>
        <mxCell id="jRs0T8GrUss93oa-0Pz8-7" value="" style="endArrow=none;html=1;rounded=0;exitX=0.5;exitY=0;exitDx=0;exitDy=0;entryX=0.5;entryY=1;entryDx=0;entryDy=0;edgeStyle=orthogonalEdgeStyle;" edge="1" parent="1" source="8O7HqSqT24vESQiMK9eg-3" target="8O7HqSqT24vESQiMK9eg-1">
          <mxGeometry width="50" height="50" relative="1" as="geometry">
            <mxPoint x="190" y="470" as="sourcePoint" />
            <mxPoint x="240" y="420" as="targetPoint" />
            <Array as="points">
              <mxPoint x="500" y="430" />
              <mxPoint x="550" y="430" />
            </Array>
          </mxGeometry>
        </mxCell>
        <mxCell id="jRs0T8GrUss93oa-0Pz8-8" value="" style="endArrow=none;html=1;rounded=0;exitX=0.5;exitY=0;exitDx=0;exitDy=0;entryX=0.5;entryY=1;entryDx=0;entryDy=0;edgeStyle=orthogonalEdgeStyle;" edge="1" parent="1" target="8O7HqSqT24vESQiMK9eg-1">
          <mxGeometry width="50" height="50" relative="1" as="geometry">
            <mxPoint x="539.97" y="450" as="sourcePoint" />
            <mxPoint x="589.97" y="370" as="targetPoint" />
            <Array as="points">
              <mxPoint x="540" y="430" />
              <mxPoint x="550" y="430" />
            </Array>
          </mxGeometry>
        </mxCell>
        <mxCell id="jRs0T8GrUss93oa-0Pz8-9" value="" style="endArrow=none;html=1;rounded=0;exitX=0.5;exitY=0;exitDx=0;exitDy=0;edgeStyle=orthogonalEdgeStyle;" edge="1" parent="1" source="8O7HqSqT24vESQiMK9eg-5">
          <mxGeometry width="50" height="50" relative="1" as="geometry">
            <mxPoint x="680" y="620" as="sourcePoint" />
            <mxPoint x="550" y="430" as="targetPoint" />
            <Array as="points">
              <mxPoint x="580" y="430" />
            </Array>
          </mxGeometry>
        </mxCell>
        <mxCell id="jRs0T8GrUss93oa-0Pz8-10" value="개발물 삭제" style="ellipse;whiteSpace=wrap;html=1;" vertex="1" parent="1">
          <mxGeometry x="510" y="310" width="80" height="40" as="geometry" />
        </mxCell>
        <mxCell id="jRs0T8GrUss93oa-0Pz8-11" value="" style="endArrow=open;dashed=1;endFill=0;endSize=6;html=1;rounded=0;exitX=0;exitY=0.5;exitDx=0;exitDy=0;entryX=0.961;entryY=0.259;entryDx=0;entryDy=0;entryPerimeter=0;" edge="1" parent="1" source="jRs0T8GrUss93oa-0Pz8-10" target="_r3QkGQczHyN3289975N-16">
          <mxGeometry width="160" relative="1" as="geometry">
            <mxPoint x="605" y="350" as="sourcePoint" />
            <mxPoint x="520" y="410" as="targetPoint" />
          </mxGeometry>
        </mxCell>
        <mxCell id="jRs0T8GrUss93oa-0Pz8-12" value="&amp;lt;&amp;lt; include &amp;gt;&amp;gt;" style="edgeLabel;html=1;align=center;verticalAlign=middle;resizable=0;points=[];fontSize=8;" vertex="1" connectable="0" parent="jRs0T8GrUss93oa-0Pz8-11">
          <mxGeometry x="-0.0116" y="-1" relative="1" as="geometry">
            <mxPoint as="offset" />
          </mxGeometry>
        </mxCell>
        <mxCell id="jRs0T8GrUss93oa-0Pz8-13" value="" style="endArrow=open;dashed=1;endFill=0;endSize=6;html=1;rounded=0;exitX=0.5;exitY=0;exitDx=0;exitDy=0;entryX=0.5;entryY=1;entryDx=0;entryDy=0;" edge="1" parent="1" source="8O7HqSqT24vESQiMK9eg-13" target="8O7HqSqT24vESQiMK9eg-2">
          <mxGeometry width="160" relative="1" as="geometry">
            <mxPoint x="510" y="647" as="sourcePoint" />
            <mxPoint x="561" y="550" as="targetPoint" />
          </mxGeometry>
        </mxCell>
        <mxCell id="jRs0T8GrUss93oa-0Pz8-16" value="나의&lt;div&gt;정보&lt;/div&gt;" style="ellipse;whiteSpace=wrap;html=1;" vertex="1" parent="1">
          <mxGeometry x="520" y="730" width="80" height="40" as="geometry" />
        </mxCell>
        <mxCell id="jRs0T8GrUss93oa-0Pz8-18" value="" style="edgeStyle=orthogonalEdgeStyle;rounded=0;orthogonalLoop=1;jettySize=auto;html=1;endArrow=block;endFill=0;entryX=0.5;entryY=1;entryDx=0;entryDy=0;" edge="1" parent="1">
          <mxGeometry relative="1" as="geometry">
            <Array as="points">
              <mxPoint x="474.0042908241125" y="800" />
              <mxPoint x="564.0042908241126" y="800" />
            </Array>
            <mxPoint x="564.0042908241126" y="770" as="targetPoint" />
            <mxPoint x="474.0042908241125" y="820" as="sourcePoint" />
          </mxGeometry>
        </mxCell>
        <mxCell id="jRs0T8GrUss93oa-0Pz8-19" value="조회" style="ellipse;whiteSpace=wrap;html=1;" vertex="1" parent="1">
          <mxGeometry x="454.0042908241125" y="820" width="40" height="40" as="geometry" />
        </mxCell>
        <mxCell id="jRs0T8GrUss93oa-0Pz8-20" value="수정" style="ellipse;whiteSpace=wrap;html=1;" vertex="1" parent="1">
          <mxGeometry x="534.0042908241126" y="820" width="40" height="40" as="geometry" />
        </mxCell>
        <mxCell id="jRs0T8GrUss93oa-0Pz8-21" value="삭제" style="ellipse;whiteSpace=wrap;html=1;" vertex="1" parent="1">
          <mxGeometry x="574.0042908241126" y="820" width="40" height="40" as="geometry" />
        </mxCell>
        <mxCell id="jRs0T8GrUss93oa-0Pz8-23" value="등록" style="ellipse;whiteSpace=wrap;html=1;" vertex="1" parent="1">
          <mxGeometry x="494.0042908241125" y="820" width="40" height="40" as="geometry" />
        </mxCell>
        <mxCell id="jRs0T8GrUss93oa-0Pz8-24" value="" style="endArrow=none;html=1;rounded=0;exitX=0.5;exitY=0;exitDx=0;exitDy=0;entryX=0.5;entryY=1;entryDx=0;entryDy=0;edgeStyle=orthogonalEdgeStyle;" edge="1" parent="1" source="jRs0T8GrUss93oa-0Pz8-23">
          <mxGeometry width="50" height="50" relative="1" as="geometry">
            <mxPoint x="204.0042908241125" y="840" as="sourcePoint" />
            <mxPoint x="564.0042908241126" y="770" as="targetPoint" />
            <Array as="points">
              <mxPoint x="514.0042908241126" y="800" />
              <mxPoint x="564.0042908241126" y="800" />
            </Array>
          </mxGeometry>
        </mxCell>
        <mxCell id="jRs0T8GrUss93oa-0Pz8-25" value="" style="endArrow=none;html=1;rounded=0;exitX=0.5;exitY=0;exitDx=0;exitDy=0;entryX=0.5;entryY=1;entryDx=0;entryDy=0;edgeStyle=orthogonalEdgeStyle;" edge="1" parent="1">
          <mxGeometry width="50" height="50" relative="1" as="geometry">
            <mxPoint x="553.9742908241126" y="820" as="sourcePoint" />
            <mxPoint x="564.0042908241126" y="770" as="targetPoint" />
            <Array as="points">
              <mxPoint x="554.0042908241126" y="800" />
              <mxPoint x="564.0042908241126" y="800" />
            </Array>
          </mxGeometry>
        </mxCell>
        <mxCell id="jRs0T8GrUss93oa-0Pz8-26" value="" style="endArrow=none;html=1;rounded=0;exitX=0.5;exitY=0;exitDx=0;exitDy=0;edgeStyle=orthogonalEdgeStyle;" edge="1" parent="1" source="jRs0T8GrUss93oa-0Pz8-21">
          <mxGeometry width="50" height="50" relative="1" as="geometry">
            <mxPoint x="694.0042908241126" y="990" as="sourcePoint" />
            <mxPoint x="564.0042908241126" y="800" as="targetPoint" />
            <Array as="points">
              <mxPoint x="594.0042908241126" y="800" />
            </Array>
          </mxGeometry>
        </mxCell>
        <mxCell id="jRs0T8GrUss93oa-0Pz8-27" value="" style="html=1;verticalAlign=bottom;endArrow=block;curved=0;rounded=0;entryX=1;entryY=0.5;entryDx=0;entryDy=0;" edge="1" parent="1" target="_r3QkGQczHyN3289975N-11">
          <mxGeometry width="80" relative="1" as="geometry">
            <mxPoint x="720" y="470" as="sourcePoint" />
            <mxPoint x="690" y="460" as="targetPoint" />
          </mxGeometry>
        </mxCell>
        <mxCell id="jRs0T8GrUss93oa-0Pz8-28" value="" style="html=1;verticalAlign=bottom;endArrow=block;curved=0;rounded=0;entryX=1;entryY=0.5;entryDx=0;entryDy=0;" edge="1" parent="1" target="jRs0T8GrUss93oa-0Pz8-10">
          <mxGeometry width="80" relative="1" as="geometry">
            <mxPoint x="720" y="470" as="sourcePoint" />
            <mxPoint x="690" y="440" as="targetPoint" />
          </mxGeometry>
        </mxCell>
        <mxCell id="jRs0T8GrUss93oa-0Pz8-29" value="use" style="html=1;verticalAlign=bottom;endArrow=block;curved=0;rounded=0;entryX=0.959;entryY=0.354;entryDx=0;entryDy=0;entryPerimeter=0;" edge="1" parent="1" target="_r3QkGQczHyN3289975N-11">
          <mxGeometry width="80" relative="1" as="geometry">
            <mxPoint x="730" y="200" as="sourcePoint" />
            <mxPoint x="710" y="300" as="targetPoint" />
          </mxGeometry>
        </mxCell>
        <mxCell id="jRs0T8GrUss93oa-0Pz8-30" value="use" style="html=1;verticalAlign=bottom;endArrow=block;curved=0;rounded=0;entryX=0.959;entryY=0.328;entryDx=0;entryDy=0;entryPerimeter=0;" edge="1" parent="1" target="jRs0T8GrUss93oa-0Pz8-10">
          <mxGeometry width="80" relative="1" as="geometry">
            <mxPoint x="730" y="200" as="sourcePoint" />
            <mxPoint x="710" y="340" as="targetPoint" />
          </mxGeometry>
        </mxCell>
        <mxCell id="jRs0T8GrUss93oa-0Pz8-32" value="" style="endArrow=open;dashed=1;endFill=0;endSize=6;html=1;rounded=0;exitX=0.5;exitY=0;exitDx=0;exitDy=0;entryX=0.358;entryY=0.932;entryDx=0;entryDy=0;entryPerimeter=0;" edge="1" parent="1" source="8O7HqSqT24vESQiMK9eg-32" target="8O7HqSqT24vESQiMK9eg-2">
          <mxGeometry width="160" relative="1" as="geometry">
            <mxPoint x="450" y="585" as="sourcePoint" />
            <mxPoint x="460" y="490" as="targetPoint" />
          </mxGeometry>
        </mxCell>
        <mxCell id="jRs0T8GrUss93oa-0Pz8-33" value="&lt;font style=&quot;font-size: 8px;&quot;&gt;&amp;lt;&amp;lt; extend&amp;gt;&amp;gt;&lt;/font&gt;" style="edgeLabel;html=1;align=center;verticalAlign=middle;resizable=0;points=[];" vertex="1" connectable="0" parent="jRs0T8GrUss93oa-0Pz8-32">
          <mxGeometry x="-0.0116" y="-1" relative="1" as="geometry">
            <mxPoint x="-6" y="3" as="offset" />
          </mxGeometry>
        </mxCell>
        <mxCell id="8O7HqSqT24vESQiMK9eg-13" value="일반&lt;div&gt;계정&lt;/div&gt;" style="ellipse;whiteSpace=wrap;html=1;" parent="1" vertex="1">
          <mxGeometry x="400" y="520" width="40" height="40" as="geometry" />
        </mxCell>
        <mxCell id="45xaMsEcbv_XNlhJANLA-1" value="결제서비스" style="ellipse;whiteSpace=wrap;html=1;" vertex="1" parent="1">
          <mxGeometry x="509.99570917588744" y="530" width="80" height="40" as="geometry" />
        </mxCell>
        <mxCell id="45xaMsEcbv_XNlhJANLA-10" value="구매" style="ellipse;whiteSpace=wrap;html=1;" vertex="1" parent="1">
          <mxGeometry x="480" y="610" width="40" height="40" as="geometry" />
        </mxCell>
        <mxCell id="45xaMsEcbv_XNlhJANLA-11" value="판매" style="ellipse;whiteSpace=wrap;html=1;" vertex="1" parent="1">
          <mxGeometry x="574" y="610" width="40" height="40" as="geometry" />
        </mxCell>
        <mxCell id="45xaMsEcbv_XNlhJANLA-13" value="" style="edgeStyle=orthogonalEdgeStyle;rounded=0;orthogonalLoop=1;jettySize=auto;html=1;endArrow=block;endFill=0;entryX=0.5;entryY=1;entryDx=0;entryDy=0;exitX=0.5;exitY=0;exitDx=0;exitDy=0;" edge="1" parent="1" source="45xaMsEcbv_XNlhJANLA-10" target="45xaMsEcbv_XNlhJANLA-1">
          <mxGeometry relative="1" as="geometry">
            <Array as="points">
              <mxPoint x="500" y="590" />
              <mxPoint x="540" y="590" />
              <mxPoint x="540" y="570" />
            </Array>
            <mxPoint x="530" y="590" as="sourcePoint" />
            <mxPoint x="620" y="540" as="targetPoint" />
          </mxGeometry>
        </mxCell>
        <mxCell id="45xaMsEcbv_XNlhJANLA-17" value="" style="endArrow=none;html=1;rounded=0;exitX=0.5;exitY=0;exitDx=0;exitDy=0;edgeStyle=orthogonalEdgeStyle;" edge="1" parent="1" source="45xaMsEcbv_XNlhJANLA-11">
          <mxGeometry width="50" height="50" relative="1" as="geometry">
            <mxPoint x="190" y="540" as="sourcePoint" />
            <mxPoint x="540" y="570" as="targetPoint" />
            <Array as="points">
              <mxPoint x="590" y="610" />
              <mxPoint x="590" y="590" />
              <mxPoint x="541" y="590" />
              <mxPoint x="541" y="570" />
            </Array>
          </mxGeometry>
        </mxCell>
        <mxCell id="45xaMsEcbv_XNlhJANLA-18" value="" style="endArrow=open;dashed=1;endFill=0;endSize=6;html=1;rounded=0;exitX=0;exitY=0;exitDx=0;exitDy=0;entryX=0.806;entryY=0.811;entryDx=0;entryDy=0;entryPerimeter=0;" edge="1" parent="1" source="45xaMsEcbv_XNlhJANLA-1" target="_r3QkGQczHyN3289975N-16">
          <mxGeometry width="160" relative="1" as="geometry">
            <mxPoint x="682" y="340" as="sourcePoint" />
            <mxPoint x="600" y="453" as="targetPoint" />
          </mxGeometry>
        </mxCell>
        <mxCell id="45xaMsEcbv_XNlhJANLA-19" value="&amp;lt;&amp;lt; include &amp;gt;&amp;gt;" style="edgeLabel;html=1;align=center;verticalAlign=middle;resizable=0;points=[];fontSize=8;" vertex="1" connectable="0" parent="45xaMsEcbv_XNlhJANLA-18">
          <mxGeometry x="-0.0116" y="-1" relative="1" as="geometry">
            <mxPoint as="offset" />
          </mxGeometry>
        </mxCell>
        <mxCell id="45xaMsEcbv_XNlhJANLA-20" value="로그아웃" style="ellipse;whiteSpace=wrap;html=1;" vertex="1" parent="1">
          <mxGeometry x="240" y="350" width="80" height="40" as="geometry" />
        </mxCell>
        <mxCell id="45xaMsEcbv_XNlhJANLA-22" value="" style="endArrow=open;dashed=1;endFill=0;endSize=6;html=1;rounded=0;exitX=1;exitY=0.5;exitDx=0;exitDy=0;" edge="1" parent="1" source="45xaMsEcbv_XNlhJANLA-20" target="_r3QkGQczHyN3289975N-16">
          <mxGeometry width="160" relative="1" as="geometry">
            <mxPoint x="442" y="380" as="sourcePoint" />
            <mxPoint x="360" y="493" as="targetPoint" />
          </mxGeometry>
        </mxCell>
        <mxCell id="45xaMsEcbv_XNlhJANLA-23" value="&amp;lt;&amp;lt; include &amp;gt;&amp;gt;" style="edgeLabel;html=1;align=center;verticalAlign=middle;resizable=0;points=[];fontSize=8;" vertex="1" connectable="0" parent="45xaMsEcbv_XNlhJANLA-22">
          <mxGeometry x="-0.0116" y="-1" relative="1" as="geometry">
            <mxPoint as="offset" />
          </mxGeometry>
        </mxCell>
        <mxCell id="45xaMsEcbv_XNlhJANLA-25" value="use" style="html=1;verticalAlign=bottom;endArrow=block;curved=0;rounded=0;entryX=1;entryY=1;entryDx=0;entryDy=0;" edge="1" parent="1" target="_r3QkGQczHyN3289975N-8">
          <mxGeometry width="80" relative="1" as="geometry">
            <mxPoint x="720" y="470" as="sourcePoint" />
            <mxPoint x="740" y="520" as="targetPoint" />
          </mxGeometry>
        </mxCell>
        <mxCell id="45xaMsEcbv_XNlhJANLA-26" value="use" style="html=1;verticalAlign=bottom;endArrow=block;curved=0;rounded=0;entryX=0.976;entryY=0.328;entryDx=0;entryDy=0;entryPerimeter=0;" edge="1" parent="1" target="45xaMsEcbv_XNlhJANLA-1">
          <mxGeometry width="80" relative="1" as="geometry">
            <mxPoint x="720" y="470" as="sourcePoint" />
            <mxPoint x="870" y="550" as="targetPoint" />
          </mxGeometry>
        </mxCell>
        <mxCell id="45xaMsEcbv_XNlhJANLA-27" value="use" style="html=1;verticalAlign=bottom;endArrow=block;curved=0;rounded=0;entryX=0.5;entryY=0;entryDx=0;entryDy=0;" edge="1" parent="1" target="jRs0T8GrUss93oa-0Pz8-16">
          <mxGeometry width="80" relative="1" as="geometry">
            <mxPoint x="720" y="470" as="sourcePoint" />
            <mxPoint x="830" y="590" as="targetPoint" />
          </mxGeometry>
        </mxCell>
        <mxCell id="45xaMsEcbv_XNlhJANLA-28" value="개발물 검토" style="ellipse;whiteSpace=wrap;html=1;" vertex="1" parent="1">
          <mxGeometry x="510" y="130" width="80" height="40" as="geometry" />
        </mxCell>
        <mxCell id="45xaMsEcbv_XNlhJANLA-29" value="use" style="html=1;verticalAlign=bottom;endArrow=block;curved=0;rounded=0;entryX=1;entryY=0.5;entryDx=0;entryDy=0;" edge="1" parent="1" source="p2ouRuBy7spwp9d4Mi96-4" target="45xaMsEcbv_XNlhJANLA-28">
          <mxGeometry width="80" relative="1" as="geometry">
            <mxPoint x="1120" y="140" as="sourcePoint" />
            <mxPoint x="690" y="140" as="targetPoint" />
          </mxGeometry>
        </mxCell>
        <mxCell id="45xaMsEcbv_XNlhJANLA-32" value="" style="endArrow=open;dashed=1;endFill=0;endSize=6;html=1;rounded=0;exitX=0.5;exitY=0;exitDx=0;exitDy=0;entryX=0.5;entryY=1;entryDx=0;entryDy=0;" edge="1" parent="1" source="_r3QkGQczHyN3289975N-9" target="45xaMsEcbv_XNlhJANLA-28">
          <mxGeometry width="160" relative="1" as="geometry">
            <mxPoint x="632" y="280" as="sourcePoint" />
            <mxPoint x="550" y="393" as="targetPoint" />
          </mxGeometry>
        </mxCell>
        <mxCell id="45xaMsEcbv_XNlhJANLA-33" value="&amp;lt;&amp;lt; include &amp;gt;&amp;gt;" style="edgeLabel;html=1;align=center;verticalAlign=middle;resizable=0;points=[];fontSize=8;" vertex="1" connectable="0" parent="45xaMsEcbv_XNlhJANLA-32">
          <mxGeometry x="-0.0116" y="-1" relative="1" as="geometry">
            <mxPoint as="offset" />
          </mxGeometry>
        </mxCell>
      </root>
    </mxGraphModel>
  </diagram>
</mxfile>
